<svg xmlns="http://www.w3.org/2000/svg" viewBox="0 0 13.667 24.079">
  <defs>
    <style>
      .cls-1 {
        fill: #fff;
      }
    </style>
  </defs>
  <path id="Path_1" data-name="Path 1" class="cls-1" d="M8.442,24.079H4.585a1.166,1.166,0,0,1-1.166-1.166v-8.7H1.166A1.166,1.166,0,0,1,0,13.046V9.321A1.166,1.166,0,0,1,1.166,8.155H3.414V6.288A6.373,6.373,0,0,1,5.093,1.735,6.056,6.056,0,0,1,9.561,0L12.5,0a1.169,1.169,0,0,1,1.166,1.166V4.632A1.166,1.166,0,0,1,12.5,5.8H10.52c-.6,0-.757.122-.79.16-.056.061-.118.235-.118.715V8.15h2.742a1.214,1.214,0,0,1,.578.146,1.169,1.169,0,0,1,.6,1.021v3.725a1.166,1.166,0,0,1-1.166,1.166H9.617v8.7A1.182,1.182,0,0,1,8.442,24.079ZM4.83,22.668H8.2V13.582a.782.782,0,0,1,.781-.781h3.137V9.561H8.973a.782.782,0,0,1-.781-.781v-2.1a2.417,2.417,0,0,1,.47-1.651,2.4,2.4,0,0,1,1.848-.635h1.735V1.416l-2.685,0c-2.916,0-4.731,1.867-4.731,4.872v2.5a.782.782,0,0,1-.781.781H1.411V12.8H4.049a.782.782,0,0,1,.781.781ZM12.5,1.416Z"/>
</svg>
