<svg id="Group_1" data-name="Group 1" xmlns="http://www.w3.org/2000/svg" viewBox="0 0 26 26">
  <defs>
    <style>
      .cls-1 {
        fill: #fff;
      }
    </style>
  </defs>
  <path id="Path_2" data-name="Path 2" class="cls-1" d="M18.809,0H7.176A7.174,7.174,0,0,0,0,7.176V18.824A7.184,7.184,0,0,0,7.176,26H18.824A7.184,7.184,0,0,0,26,18.824V7.176A7.207,7.207,0,0,0,18.809,0ZM23.68,18.809a4.873,4.873,0,0,1-4.871,4.871H7.176A4.873,4.873,0,0,1,2.3,18.809V7.176A4.873,4.873,0,0,1,7.176,2.3H18.824A4.873,4.873,0,0,1,23.7,7.176L23.68,18.809Z"/>
  <path id="Path_3" data-name="Path 3" class="cls-1" d="M47.684,41A6.692,6.692,0,1,0,54.4,47.684,6.689,6.689,0,0,0,47.684,41Zm0,11.079A4.387,4.387,0,1,1,52.079,47.7,4.4,4.4,0,0,1,47.684,52.079Z" transform="translate(-34.7 -34.7)"/>
  <path id="Path_4" data-name="Path 4" class="cls-1" d="M120.59,28.3a1.752,1.752,0,0,0-1.2.492,1.66,1.66,0,0,0-.492,1.2,1.752,1.752,0,0,0,.492,1.2,1.724,1.724,0,0,0,1.2.492,1.752,1.752,0,0,0,1.2-.492,1.66,1.66,0,0,0,.492-1.2,1.752,1.752,0,0,0-.492-1.2A1.66,1.66,0,0,0,120.59,28.3Z" transform="translate(-100.629 -23.951)"/>
</svg>
