<svg xmlns="http://www.w3.org/2000/svg" viewBox="0 0 630 526"><defs><style>.cls-1{fill:#f5af35;}.cls-2{fill:#7f4b2f;}.cls-3{fill:#fdfcfb;}.cls-4{fill:#f7cabe;}.cls-5{fill:#fcfbfa;}.cls-6{fill:#d8dde2;}.cls-7{fill:#f9f6f4;}.cls-8{fill:#edaa9d;}.cls-9{fill:#bec3c6;}.cls-10{fill:#fae6e1;}.cls-11{fill:#f5958f;}.cls-12{fill:#824d31;}.cls-13{fill:#ca5f5b;}</style></defs><title>maskoot</title><g id="Layer_1" data-name="Layer 1"><path class="cls-1" d="M114.3,149.16s-237.93,204,46,317.63C160.31,466.79-127.19,361.84,114.3,149.16Z"/><path class="cls-1" d="M296.94,100c-143,7.18-254.57,99-249.24,205.17C51.18,374.67,103.9,433,180,463a7.43,7.43,0,0,1,1.08.43q9.85,3.84,20.2,7a7.79,7.79,0,0,1,1,.31q6.35,1.94,12.87,3.62a8.12,8.12,0,0,1,1.16.3l.62.16.3.08A327.05,327.05,0,0,0,265,483.21a9.43,9.43,0,0,1,1,.09q10.3,1,20.86,1.32a10.1,10.1,0,0,1,1.69.06q3.44.1,6.91.13h.17q10.21.08,20.59-.43a345.66,345.66,0,0,0,55.46-7.32l.15,0,1.92-.4h0c1-.22,2-.43,3-.67l.36-.08,1.79-.42.35-.08q4.3-1,8.54-2.17l.56-.15q4.95-1.34,9.81-2.81.37-.14.77-.24l3.36-1a8.39,8.39,0,0,1,1.08-.34q9.75-3.14,19.1-6.83a7.9,7.9,0,0,1,1.05-.42C511,426.5,569.36,356.67,565.48,279.22,560.15,173.08,439.92,92.86,296.94,100Z"/><path class="cls-2" d="M525.36,121.93c-5.5-31.7-28.47-53.38-67.8-64.18-23.73-6.52-48.3-6.11-72.85-2.72-2.4.33-4.3.47-6.36-1.18C346,27.84,306,17.44,260,20.75,214.54,24,178.42,40.24,152,68.82c-1.78,1.92-3.56,2.47-6.53,2.38C123.19,70.58,103.07,74.8,85.56,86,59,103,44.94,124.21,47.4,150.9,49,168.18,59.7,181.32,81,188.64c14.46,5,29.49,6.14,45.07,4.41,3.47-.38,7.72-2.7,10.06-1s1.81,5.18,2.72,7.86c5.94,17.41,8.69,35.66,22.59,51,1.12,1.24.16,1.55-1.05,2.09-7.51,3.35-9.67,8.69-8.61,14.85,1.73,10.09,8.9,17.63,19.85,23.08,2.39,1.19,3.79,2.47,4.51,4.6,2,5.84,6.2,10.73,11.66,15,8.76,6.86,19.46,11.4,30.9,15.05,1.32.42,2.94.5,3.89,1.69-23.71,10.67-42.53,25.31-59,42.38l0-.06a8.66,8.66,0,0,1-.86.72l-.4.57c-.1.15-.22.29-.34.43a19,19,0,0,1-3.34,3.64c-.2,1-1.54,1.75-2.62,2.6-1.55,1.84-3,3.78-4.48,5.65,0,.06,0,.13,0,.19s-.83,1.56-1,1.74-.4.45-.62.67a5.94,5.94,0,0,1-.92,1.54,64.16,64.16,0,0,0-5.43,8.32c-6.63,11.47-10.5,23.34-6.82,35.9a44.81,44.81,0,0,0,9.71,17.41,8,8,0,0,1,3,1.59c.14.06.27.14.41.21a8,8,0,0,1,3,1.46,8.06,8.06,0,0,1,2.21,1.06,8.14,8.14,0,0,1,1.86.94,7.42,7.42,0,0,1,1.42.66,8.16,8.16,0,0,1,1.26.53,8.11,8.11,0,0,1,3.28,1.56c.81.3,1.63.61,2.44.95s1.72.74,2.58,1.12a8.32,8.32,0,0,1,2.44.93,8.2,8.2,0,0,1,2.5,1,8.35,8.35,0,0,1,1.84.73,8.09,8.09,0,0,1,2.12,1,8.56,8.56,0,0,1,1.49.5c.18,0,.34.13.52.19a8.25,8.25,0,0,1,2.38.88,8.31,8.31,0,0,1,1.53.58,8.53,8.53,0,0,1,1.09.35,9.87,9.87,0,0,1,1.73.64,8.7,8.7,0,0,1,2.39.76,8.36,8.36,0,0,1,2,.8,8.5,8.5,0,0,1,2.6.92,8.77,8.77,0,0,1,2.36.67,87.78,87.78,0,0,1,3,1,8.53,8.53,0,0,1,2,.62,8.62,8.62,0,0,1,2.79.86,7.31,7.31,0,0,1,.88.25l.53.17a8.75,8.75,0,0,1,2.08.58,9.19,9.19,0,0,1,2.2.64,70.38,70.38,0,0,0,3.66.94,8.86,8.86,0,0,1,2.65.66,7.39,7.39,0,0,1,.84.23,8.62,8.62,0,0,1,2.62.73,68.1,68.1,0,0,1,3.87.91H222a9.19,9.19,0,0,1,2.69.56,9.34,9.34,0,0,1,1.82.4,9.08,9.08,0,0,1,1.6.33,8.92,8.92,0,0,1,1.76.4,127.8,127.8,0,0,0,3.22.62l.37.06a9.8,9.8,0,0,1,2.12.33,9.09,9.09,0,0,1,1.54.37l.21,0a9.55,9.55,0,0,1,2.4.39,9,9,0,0,1,1.54.28,9.36,9.36,0,0,1,3.41.64,9.51,9.51,0,0,1,1.83.24,9.78,9.78,0,0,1,2.4.32,496.94,496.94,0,0,1,5,.87h.19a9.37,9.37,0,0,1,1.6.15,10,10,0,0,1,1.61.19,10.21,10.21,0,0,1,1.5.17,10,10,0,0,1,2.21.25c.3,0,.6.07.88.13H262a128.45,128.45,0,0,1,3.6.39,9.8,9.8,0,0,1,1.15-.08,9.53,9.53,0,0,1,3,.45l.35,0a10.2,10.2,0,0,1,1.71.15h.1a10.17,10.17,0,0,1,1.84.17h.08c.27,0,.53,0,.79,0s.63,0,1,0a135.1,135.1,0,0,1,2.93.31l.41,0,.31,0,.4,0a10.07,10.07,0,0,1,1.83.18h.31c.3,0,.59,0,.91,0a9.63,9.63,0,0,1,1.87.2l.59,0a10.12,10.12,0,0,1,1.28.09l.39,0c.23,0,.46,0,.7,0a10.2,10.2,0,0,1,1.7.15,9.75,9.75,0,0,1,1-.07,10.23,10.23,0,0,1,1.62.14l.47,0c.22,0,.43,0,.66,0s.61,0,.9.06l.39,0c.23,0,.45,0,.68,0,1.35,0,2.69,0,4,.05a10.25,10.25,0,0,1,1.6-.13l.38,0,.5,0c.32,0,.63,0,.93,0s.43,0,.66,0,.51,0,.77,0a10.38,10.38,0,0,1,1.23-.08c.33,0,.64,0,.95,0s.58,0,.89,0,.4,0,.6,0a10.35,10.35,0,0,1,1.53-.11c.33,0,.65,0,1,0a10.4,10.4,0,0,1,1.32-.09c.35,0,.68,0,1,0a10.13,10.13,0,0,1,1.87-.17c.33,0,.64,0,1,0s.31-.05.47-.06a10.53,10.53,0,0,1,1.16-.07l.37,0a10.1,10.1,0,0,1,1.38-.1l.37,0a10.24,10.24,0,0,1,1.71-.14l.47,0a10.08,10.08,0,0,1,1.95-.19c.21,0,.4,0,.6,0a10.2,10.2,0,0,1,1.77-.15h.17a10,10,0,0,1,2.08-.22h.24a10.12,10.12,0,0,1,1.89-.18h.1a10,10,0,0,1,2.07-.21H332a10.28,10.28,0,0,1,1.66-.13h.08l.59-.05a9.88,9.88,0,0,1,1.62-.16,10,10,0,0,1,1.94-.21,3154.93,3154.93,0,0,1,4.23-.53,10,10,0,0,1,2.11-.22h.1l.37-.05a1251,1251,0,0,1,4.18-.61,209.77,209.77,0,0,1,3.75-.58,9.62,9.62,0,0,1,2.62-.38c.25-.05.51-.09.77-.13a9.78,9.78,0,0,1,1.84-.34,6.87,6.87,0,0,1,.91-.14,9.47,9.47,0,0,1,1.09-.18c.27-.08.53-.15.82-.2a9.51,9.51,0,0,1,1.68-.27,177.18,177.18,0,0,0,4.41-.8,108.79,108.79,0,0,1,3.59-.7,9.33,9.33,0,0,1,2.65-.51,9.08,9.08,0,0,1,1.46-.31,8.85,8.85,0,0,1,2.26-.58,9.15,9.15,0,0,1,1.22-.26,9,9,0,0,1,1.83-.42c.25-.07.5-.14.76-.19a9,9,0,0,1,2.43-.58,8.78,8.78,0,0,1,1.22-.33,9,9,0,0,1,1.29-.3,8.92,8.92,0,0,1,1.38-.33,110.93,110.93,0,0,0,3-.84,9,9,0,0,1,1.22-.3,735.86,735.86,0,0,0,4.29-1.17,141.55,141.55,0,0,0,4.31-1.33,8.74,8.74,0,0,1,1.46-.4,8.53,8.53,0,0,1,1.83-.58,8.66,8.66,0,0,1,2.19-.64,224.46,224.46,0,0,1,4-1.33,573,573,0,0,0,5.58-1.93,141.35,141.35,0,0,1,4-1.47,139.5,139.5,0,0,1,4.6-1.78,8.26,8.26,0,0,1,1.91-.76c9.8-9.19,13.67-21.17,12.7-34.2s-4.26-26.11-8.86-38.82c-5.94-16.39-14.14-32-27.65-45.73a90.35,90.35,0,0,0-36-22.41c1.06-1.27,2.63-1.53,3.89-2.11,11.49-5.25,22.24-11.19,29.86-19.81,1.88-2.12,3.45-3.19,6.94-2.17a20.12,20.12,0,0,0,7.06.35c20.94-1.7,38.71-18.13,37.29-34.58-.76-8.82-5.14-16-16.22-19.79-2.15-.74-1.54-1.67-1-2.83,3.89-8.7,4.94-17.9,9-26.68,5.18-11.28,6.25-23.44,7.25-35.43.19-2.29.88-3.45,4.38-3.23a90.38,90.38,0,0,0,15.89-.66c12.76-1.45,24.64-4.64,35-10.63C522.79,152.64,528.16,138,525.36,121.93ZM160.7,262.76a6.05,6.05,0,0,1,2.86-3.46c2.82-1.61,4.24-1.24,5,1.41A153.47,153.47,0,0,1,173,282.88C165.11,279.61,158.65,269,160.7,262.76ZM209,462.5c-10.9-.38-21.7-1.47-32-4.49-11-3.25-18.84-9.3-24.14-17.32-8.47-10.46-9-21.55-4.38-33,6-14.89,17.13-27.55,29.58-39.62a170.16,170.16,0,0,1,48-33.19c3.1-1.42,6.46-2.51,9.72-3.72a8.67,8.67,0,0,1,8.16,1c6.11,5.17,13.67,8.3,22.67,10.63a76.92,76.92,0,0,1-17.7,7.64c-7,2-10.32,5.32-11.42,10.86-1,4.94-3.32,9.72-4.62,14.64-.72,2.72-2.07,4.43-5.78,5a58.43,58.43,0,0,0-6.43,1.71c1.39-5.38,3.94-10.08,6.3-14.82.5-1,1.12-2,1.7-2.93,1.12-1.87.52-3.48-1.78-4.37s-4.84-.49-6,1.51c-2.09,3.61-4,7.28-5.76,11a72.35,72.35,0,0,0-4,10.44c-.56,2-1.85,2.85-4.09,3.57-8.61,2.79-17.08,5.83-25.34,9.2-2.35,1-3.7,2.34-3.26,4.39.37,1.74,2,2.8,4.17,3.24,1.79.35,3.23-.41,4.72-1A478,478,0,0,1,260.12,381a9.7,9.7,0,0,1,1.38,0c-1.37,1.49-2.67,2.75-3.76,4.11-12.86,16-13.81,32.82-6.22,50.29.48,1.11,1,2.2,1.57,3.3,3.42,4.66,7,9.19,12.43,12.75a47.27,47.27,0,0,0,12.71,5.5c-8.45,1.78-16.3,2.65-24.1,3.54A304.22,304.22,0,0,1,209,462.5Zm110.87-77.86c.85,1.49,2.46,1.57,4.19,1.37,5.9-.66,11.78-1.57,17.79-1.34,10.46-1.09,20.87-.14,31.28.52a3.05,3.05,0,0,1,3.09,2.13c2.34,5.68,2.08,11.36.23,17.08-.38,1.16-1.07,1.52-2.53,1.63-10.4.82-20.82,1.44-31.27,1.74-5.7.24-11.4.56-17.1.7-2.87.07-5.16.6-5.08,3.12s2.46,2.75,5.08,2.66c5.7-.2,11.41-.36,17.11-.53,9.88-.63,19.78-1.21,29.65-1.91,2.38-.17,3.33.26,3.05,2.19-.68,4.81-1.72,9.55-4.26,14a4.31,4.31,0,0,1-3,2.44c-8.57,2-17.18,3.75-26.22,3.85-4.9,1.1-9.92.52-14.88.59-2.86,0-5.15.5-5.13,3s2.38,2.79,5,2.75c4.44-.07,8.88-.09,13.32-.13,9.26-.92,18.53-1.82,27.44-4.11,1.73-.44,2.32,0,2.13,1.37-.54,3.72-1.75,7.41-5.88,9.61a70.57,70.57,0,0,1-26.07,8.26c-14.59,1.65-28.67.28-42-4.65a24.86,24.86,0,0,1-11.63-9.48c-14.43-20.37-17.13-41.28-4.5-62.83a20.77,20.77,0,0,1,9.75-8.49c15.11-6.94,31.26-10.69,49-9.74a86.51,86.51,0,0,1,29.12,6.36c3.49,1.41,7.75,9.18,6.73,11.9-.34.91-1.22.77-2,.7a236.89,236.89,0,0,0-31.35-.66c-5.52.5-11,1-16.54,1.52a8.87,8.87,0,0,0-3.47.94C319.59,382,319.13,383.27,319.91,384.64Zm-40.35,65.28c-6.42-1.64-10.85-4.55-14-8.4-13-16-13.26-32.63-3.11-49.56.15-.25.55-.41,1.6-1.18C259,412.28,264.43,431.58,279.55,449.92Zm48.7-96.82a104.73,104.73,0,0,0-22.53,3.3c-2.13.54-3,.44-3.48-1.58-1.68-7.23-5.45-13.93-10.19-20.25-2.34-3.11-1.88-5.82.13-8.75,7.44-10.85,28.47-12,39.11-2.1,6.27,5.83,8.4,12.68,8.33,20.06C339.57,352.76,339.57,352.76,328.25,353.09Zm-34.87,5.2c.21,1.27-.24,1.95-1.71,2.53-5.82,2.34-11.55,4.77-16.06,8.58a5.94,5.94,0,0,1-2.59.9c-10.34,1.78-20.48,4.11-31.41,6.71,2-6.19,3.83-11.86,5.64-17.54.31-1,1.3-1.33,2.31-1.71,9.62-3.65,19.23-7.26,27.66-12.54,2.66-1.67,6.77-.35,10.16-.18,2,.1,2,2.11,2.62,3.35A34,34,0,0,1,293.38,358.29ZM261,334.38c6.65.42,13.3.78,19.93,1.31,2.67.21,2.42,2.17,3.66,3.75C275.8,339.05,268.08,337.76,261,334.38ZM220.77,471c12.12-.56,24-1.76,36.27.57a562.67,562.67,0,0,0,69.75,8.52c1.21.08,2.54,0,3.72,1C292.57,485.21,255.66,484.63,220.77,471ZM400,355.54c12.71,16,19.63,33.68,24.08,52,1.89,7.76,4,15.54,3.42,23.53,1.71,17.29-11.9,32-35.2,38-11.91,3.1-24.2,4.15-36.69,4.14-27.34,0-54.27-3-81.85-7,9.71-1.84,18.6-3.71,27.62-5.1,2.52-.39,5.43.66,8.14,1.11,19.37,3.22,37.58,1.2,55-6.27,10-4.31,14.58-10.89,14.9-19.11.2-5.11,2.78-9.49,4.47-14.17,1.27-6.54.72-13.2,2.59-19.73a26.06,26.06,0,0,0-1.72-19c-1.52-3.16-.81-6.57-1.63-9.84-1.83-7.32-6.07-12.94-15.73-15.66-5.37-1.51-10.62-3.27-16.28-4-2.67-.35-3.22-1.05-2.7-3.18a31,31,0,0,0-2-21.21c-1.22-2.54-.72-3.53,2.61-4.21a11.45,11.45,0,0,1,5.27.13C375,330.93,389.1,341.8,400,355.54ZM440.85,261c1.8,11.79-9.42,24.77-24.32,28-5.67,1.22-11,.92-15.55-2.51s-8-2.61-9.55,2.31c1.86,1.47,1.6,2.82.12,4.49-6.48,7.37-15.35,12.66-25.07,17.22a186,186,0,0,1-22.14,8.33c-3.17,1-5.44,1-7.48-1.32a26,26,0,0,0-3.47-2.75,45.93,45.93,0,0,0-30.28-4.21A33.55,33.55,0,0,0,286.28,319c-1.27,1.77-3.07,3.45-3.69,5.34-1,3-3.16,3.36-6.66,3.11-24-1.69-47.07-5.56-68.1-15a42.27,42.27,0,0,1-10.57-6.21c-9.85-6-12.71-14.54-13.86-23.55a151.91,151.91,0,0,0-7-31.21,23.84,23.84,0,0,1-.23-15.06c1.36-4.79,2-9.69,3-14.55-.1-4.83-.1-4.83,5.76-5.92a584.44,584.44,0,0,1,81.5-9,802.88,802.88,0,0,1,86.24,1.4c6,.39,5.45,3.55,6.46,6.32,6.73,15.11,18.85,27.34,34.48,37.65,1.83,1.21,2.43,2,.8,3.61-1.94,1.91-1.61,4,1,5.31a5.44,5.44,0,0,0,7.1-1.49,33.22,33.22,0,0,1,11.87-8.91C426.92,245.19,439.14,249.87,440.85,261Zm0-107A283.32,283.32,0,0,1,438,186.74a183.55,183.55,0,0,1-4.55,21.53c-.51,1.85-1.35,2.23-3.64,1.85-23.87-4-47.93-7.12-72.23-9.18-2.2-.19-4.39-.44-6.58-.66-13.68-.51-27.32-1.45-41-1.72-51.91-1-102.89,3.36-152.64,15.06-2.74.64-3.61.21-4.23-1.76-4.83-15.39-9.31-30.82-12.2-46.51-.3-1.63.27-2.25,2-3,12-4.93,22.37-11.34,29.65-20.32,1.15-1.42,2.12-.83,3.35-.32a197.52,197.52,0,0,0,51.18,13.44c20,2.65,40.1,2.58,60.17.93,23.06-1.9,45.23-6.4,65.93-14.65a148,148,0,0,0,19.47-9.4c1.23-.71,2.2-1.48,3.9-.29,7.38,5.18,16.19,8.67,25,12.14a186.83,186.83,0,0,0,37,7.78C440.78,151.91,440.9,152.76,440.86,154.06Zm40.31,9.4a108.85,108.85,0,0,1-27.64,3.14c-2,0-3.08-.2-2.89-2.08a94.24,94.24,0,0,0,.36-10c0-1.6.74-2,2.73-1.93,3.63.17,7.27.25,10.9.21,4.69-.05,7.27-1.52,7.31-3.95,0-2.64-2.64-4.12-7.51-4-23.77.42-46.39-3-67.4-11.79a114.62,114.62,0,0,1-11.56-5.81c-2.08-1.16-2.81-2-.45-3.57a38,38,0,0,0,8.13-7.32c1.58-1.93,1.56-4-1-5.44a5.76,5.76,0,0,0-7.35.89C369.63,126.9,349.14,136,326,141.65c-39.13,9.48-78.72,10.92-118.36,1.74-18.79-4.35-35.86-11.29-50.33-21.64-2.57-1.84-5.24-2.18-7.72-.21s-1.77,4.07.62,5.94a74.12,74.12,0,0,0,12.26,7.77c2.25,1.13,2.16,1.94.79,3.48-8.16,9.19-19.57,15.12-32.63,19.44a153,153,0,0,1-21.54,5.12c-4.23.75-6.19,2.45-5.53,4.87s3.59,3.58,7.69,2.83c5-.92,10-1.85,14.89-3.18,3.44-.94,5.11-1.17,5.37,2.35.28,3.82,1.48,7.61,2.45,11.39.29,1.14.18,1.85-1.35,2.22-20.67,5.09-50.84,1.66-65.21-12.78-9.17-9.22-11.34-20-9.82-31.11C61,115.07,78.28,97.16,106.06,85c10.19-4.46,24.11-6.26,37.13-5.8-1.75,2.88-3.42,5.44-4.87,8.07-1.71,3.09-.86,5.16,2.29,6.19,3,1,5.29,0,7.12-3,20.54-32.87,53.41-54,100.62-60.53,54-7.52,103.94,6.4,135.81,42.06,1.58,1.76,2.89,3.66,4.42,5.46a5.63,5.63,0,0,0,6.91,1.37c2.62-1.15,3.39-3,2-5.25-2.41-3.75-5.71-7.07-8.88-10.77,3.74-1.13,7.49-1.15,11.13-1.4,22.27-1.53,44.4-1,64.77,6.86,29.89,11.47,47.52,30.15,50.88,55.84C517.93,143.88,505.8,157.19,481.17,163.46Z"/><polygon class="cls-2" points="264.05 390.2 264.29 390.1 264.26 390.33 264.05 390.2"/><path class="cls-3" d="M143.19,79.19c-1.75,2.88-3.42,5.44-4.87,8.07-1.71,3.09-.86,5.16,2.29,6.19,3,1,5.29,0,7.12-3,20.54-32.87,53.41-54,100.62-60.53,54-7.52,103.94,6.4,135.81,42.06,1.58,1.76,2.89,3.66,4.42,5.46a5.63,5.63,0,0,0,6.91,1.37c2.62-1.15,3.39-3,2-5.25-2.41-3.75-5.71-7.07-8.88-10.77,3.74-1.13,7.49-1.15,11.13-1.4,22.27-1.53,44.4-1,64.77,6.86,29.89,11.47,47.52,30.15,50.88,55.84,2.58,19.74-9.55,33.06-34.18,39.33a108.85,108.85,0,0,1-27.64,3.14c-2,0-3.08-.2-2.89-2.08a94.24,94.24,0,0,0,.36-10c0-1.6.74-2,2.73-1.93,3.63.17,7.27.25,10.9.21,4.69-.05,7.27-1.52,7.31-3.95,0-2.64-2.64-4.12-7.51-4-23.77.42-46.39-3-67.4-11.79a114.61,114.61,0,0,1-11.56-5.81c-2.08-1.16-2.81-2-.45-3.57a38,38,0,0,0,8.13-7.32c1.58-1.93,1.56-4-1-5.44a5.76,5.76,0,0,0-7.35.89C369.63,126.9,349.14,136,326,141.65c-39.13,9.48-78.72,10.92-118.36,1.74-18.79-4.35-35.86-11.29-50.33-21.64-2.57-1.84-5.24-2.18-7.72-.21s-1.77,4.07.62,5.94a74.13,74.13,0,0,0,12.26,7.77c2.25,1.13,2.16,1.94.79,3.48-8.16,9.19-19.57,15.12-32.63,19.44a153,153,0,0,1-21.54,5.12c-4.23.75-6.19,2.45-5.53,4.87s3.59,3.58,7.69,2.83c5-.92,10-1.85,14.89-3.18,3.44-.94,5.11-1.17,5.37,2.35.28,3.82,1.48,7.61,2.45,11.39.29,1.14.18,1.85-1.35,2.22-20.67,5.09-50.84,1.66-65.21-12.78-9.17-9.22-11.34-20-9.82-31.11C61,115.07,78.28,97.16,106.06,85,116.25,80.54,130.17,78.73,143.19,79.19Z"/><path class="cls-4" d="M197.26,306.3c-9.85-6-12.71-14.54-13.86-23.55a151.91,151.91,0,0,0-7-31.21,23.85,23.85,0,0,1-.23-15.06c1.36-4.79,2-9.69,3-14.55l9.38-1.28c-1.35,2.58-2.77,5.13-4,7.73-.86,1.78-.69,3,2.54,2.31a52,52,0,0,1,6.6-.83,54.15,54.15,0,0,1,28.29,5.24c-6,3.5-7.47,8.31-8.07,13.26-.73,6,.15,11.82,4.95,16.85,3.29,3.45,8.09,3.42,11.65.18a12.74,12.74,0,0,0,3.16-4.5,23.84,23.84,0,0,0,.39-18c-.36-1-1.69-2.09.5-3,3-1.27,2.39-2.93.69-4.79A57.24,57.24,0,0,0,207.57,218a3.33,3.33,0,0,1,2.71-1.25c4.12-.45,8.22-1,12.34-1.45,14.46-1.54,29-2.64,43.55-3,4.05-.1,8.15.22,12.15-.13,8.64-.75,17.22-1,25.78.36q-21.5,6.23-37.34,19c-2.63,2.14-2.16,3.91,1.2,5.28,2.16.88,4,.38,5.88-.49a121.92,121.92,0,0,1,16.6-6.07c19-5.55,38.61-6.36,58.53-4.19,3.51.38,4.16-.35,2.85-2.55-1.84-3.11-3.89-6.14-5.84-9.21,4.39-.73,8.69.32,13,.41,6.73,15.11,18.85,27.34,34.48,37.65,1.83,1.21,2.43,2,.8,3.61-1.94,1.91-1.61,4,1,5.31a5.44,5.44,0,0,0,7.1-1.49,33.22,33.22,0,0,1,11.87-8.91c12.61-5.67,24.83-1,26.54,10.17,1.8,11.79-9.42,24.77-24.32,28-5.67,1.22-11,.92-15.55-2.51s-8-2.61-9.55,2.31A18,18,0,0,0,387,291.2c-10.92,7-22.2,13.46-35.4,17.82-6,2-12.51,3.2-18.24,5.77a45.93,45.93,0,0,0-30.28-4.21A33.54,33.54,0,0,0,286.28,319c-10.44,0-20.82-.13-31.26-1.11a247.35,247.35,0,0,1-52-10.14C201.2,307.21,199.61,305.8,197.26,306.3ZM291.09,246a20.33,20.33,0,0,0,5.47,14.53,13.81,13.81,0,0,0,20.31.12c7.41-7.44,7.23-21.31-.37-28.65a13.75,13.75,0,0,0-19.78.16C292.66,236.19,291.31,240.95,291.09,246Zm64.79,6.83c-9.22,0-17.28,6-17.34,12.86-.06,7.44,7.76,13.46,17.34,13.57,10.27.12,17.45-6.05,17.78-13.24S365.72,252.79,355.87,252.78ZM328.52,285.6c.34-6.81-4.18-10.41-12.39-10.35-8.72.07-14.71,3.58-18.71,9.23-1.85,2.62-3.17,5.47-4.83,8.18-1.88,3.07-4.8,5.05-9.36,5.77-7.64,1.2-15.21,2.68-22.78,4.11-1.67.32-4,.47-3.46,2.48s2.84,1.4,4.44,1.14c6-1,12-2,17.92-3.21,14.17-2.81,28.4-5.51,41.77-10.21C325.37,291.24,329.82,289.72,328.52,285.6Zm-111.72-4.74c.06-5.86-6.07-10.64-13.73-10.68s-13.81,4.45-14,10.41c-.14,5.57,6,10.61,13.19,10.77C209.94,291.54,216.73,286.63,216.79,280.87Zm45.27-11.66c-1-4.24-.83-8.25-3.56-11.83-1.42-1.86-2.84-2.3-5.42-1.53-4.66,1.39-7.65,4.12-10.5,7.05-3.33,3.43-2.43,6.41,2.68,8.17a49.42,49.42,0,0,0,10.05,2C259.57,273.61,262.12,272.08,262.07,269.21Zm148.42,7.74c-.27,1.44.12,2.33,1.5,2.7s2.57-.14,2.9-1.2c1.8-5.89,5.74-10.78,11.42-14.93,1-.73,1.25-1.72.18-2.57a2.83,2.83,0,0,0-3.39-.12C416.69,265.33,412.17,270.7,410.49,276.94Zm-152.17,4.14c2.31.17,4.06.29,4.43-1.25.42-1.72-1.38-2.19-3.08-2.39a78.87,78.87,0,0,1-19.79-4.81c-1.71-.67-3.31-.91-4.23.62s.65,2.18,2,2.72A86.2,86.2,0,0,0,258.31,281.08Zm165.13-29.56c-5.23,0-16.62,6.8-18.12,10.78-.33.87-.26,1.47.81,1.86a2.57,2.57,0,0,0,2.89-.78c3.93-4.11,8.3-7.74,15.24-8.83a1.59,1.59,0,0,0,1.46-2C425.49,251.55,424.46,251.51,423.44,251.53ZM288.2,307.72c10.88.82,21.11,0,28.64-7C307.38,303.21,298,306,288.2,307.72Zm117.49-38.34c0-1.14-.28-2.43-2.11-2.24s-1.72,1.78-2,2.85.39,2,2,2C405.67,271.93,405.66,270.59,405.69,269.38Z"/><path class="cls-3" d="M351,200.27c-13.68-.51-27.32-1.45-41-1.72-51.91-1-102.89,3.36-152.64,15.06-2.74.64-3.61.21-4.23-1.76-4.83-15.39-9.31-30.82-12.2-46.51-.3-1.63.27-2.25,2-3,12-4.93,22.37-11.34,29.65-20.32,1.15-1.42,2.12-.83,3.35-.32a197.51,197.51,0,0,0,51.18,13.44c20,2.65,40.1,2.58,60.17.93,23.06-1.9,45.23-6.4,65.93-14.65a148,148,0,0,0,19.47-9.4c1.23-.71,2.2-1.48,3.9-.29,7.38,5.18,16.19,8.67,25,12.14-.54,7.5-4.09,14.38-8,21.08-6.34,10.86-15.46,20.15-27.77,27.58C361.08,195.43,355.53,197.26,351,200.27Z"/><path class="cls-5" d="M152.95,440.69c-8.47-10.46-9-21.55-4.38-33,6-14.89,17.13-27.55,29.58-39.62a170.16,170.16,0,0,1,48-33.19c3.1-1.42,6.46-2.51,9.72-3.72a8.67,8.67,0,0,1,8.16,1c6.11,5.17,13.67,8.3,22.67,10.63a76.92,76.92,0,0,1-17.7,7.64c-7,2-10.32,5.32-11.42,10.86-1,4.94-3.32,9.72-4.62,14.64-.72,2.72-2.07,4.43-5.78,5a58.44,58.44,0,0,0-6.43,1.71c1.39-5.38,3.94-10.08,6.3-14.82.5-1,1.12-2,1.7-2.93,1.12-1.87.52-3.48-1.78-4.37s-4.85-.49-6,1.51c-2.09,3.61-4,7.28-5.76,11a72.36,72.36,0,0,0-4,10.44c-.56,2-1.85,2.85-4.09,3.57-8.61,2.79-17.08,5.83-25.34,9.2-2.35,1-3.7,2.34-3.26,4.39.37,1.74,2,2.8,4.17,3.24,1.79.35,3.23-.41,4.72-1A478,478,0,0,1,260.12,381a9.7,9.7,0,0,1,1.38,0c-1.38,1.49-2.67,2.75-3.76,4.11-12.86,16-13.81,32.82-6.22,50.29.48,1.11,1,2.2,1.57,3.3-1.06.24-2.1.53-3.18.71A360.25,360.25,0,0,1,211.27,444c-15.16.88-30.27,1.36-45.33-1.09C161.6,442.17,157.5,440.61,152.95,440.69Z"/><path class="cls-4" d="M337.79,455.64c-14.59,1.65-28.67.28-42-4.65a24.86,24.86,0,0,1-11.63-9.48c-14.43-20.37-17.13-41.28-4.5-62.83a20.77,20.77,0,0,1,9.75-8.49c15.11-6.94,31.26-10.69,49-9.74.76,6.11,2.39,12.14,2.52,18.3-5.52.5-11,1-16.54,1.52a8.87,8.87,0,0,0-3.47.94c-1.38.83-1.85,2.07-1.07,3.44s2.46,1.57,4.19,1.37c5.9-.66,11.78-1.57,17.79-1.34a165.65,165.65,0,0,1,.8,23.11c-5.7.24-11.4.56-17.1.7-2.87.07-5.16.6-5.08,3.12s2.46,2.75,5.08,2.66c5.7-.2,11.41-.36,17.11-.53.67,6.88-1.09,13.71-.82,20.58-4.9,1.1-9.92.52-14.88.59-2.86,0-5.15.5-5.13,3s2.38,2.79,5,2.75c4.44-.07,8.88-.09,13.32-.13C340.63,445.67,338.65,450.61,337.79,455.64Zm-53-74.36A6.67,6.67,0,0,0,285,383c.64,1.9,1.54,3.75,4.38,4.26a7.4,7.4,0,0,0,6.93-2c2.44-2.46,4.92-4.9,5.86-8,.83-2.76-1.24-5.07-4.7-5.3C292.34,371.52,284.83,376.76,284.78,381.28Z"/><path class="cls-5" d="M383.9,422.66c1.27-6.54.72-13.2,2.59-19.73a26.06,26.06,0,0,0-1.72-19c-1.52-3.16-.81-6.57-1.63-9.84-1.83-7.32-6.07-12.94-15.73-15.66-5.37-1.51-10.62-3.27-16.28-4-2.67-.35-3.22-1.05-2.7-3.18a31,31,0,0,0-2-21.21c-1.22-2.54-.72-3.53,2.61-4.21a11.45,11.45,0,0,1,5.27.13c20.63,5,34.75,15.82,45.65,29.56,12.71,16,19.63,33.68,24.08,52,1.89,7.76,4,15.54,3.42,23.53a25.17,25.17,0,0,0-3.42,1.1c-7.35,3.59-25.73,3.27-32.55-3.18C389.19,426.72,386.45,424.74,383.9,422.66Z"/><path class="cls-6" d="M351,200.27c4.52-3,10.06-4.85,14.77-7.69,12.31-7.43,21.43-16.71,27.77-27.58,3.91-6.71,7.47-13.58,8-21.08a186.83,186.83,0,0,0,37,7.78c2.2.21,2.33,1.06,2.29,2.36A283.38,283.38,0,0,1,438,186.74a183.58,183.58,0,0,1-4.55,21.53c-.51,1.85-1.35,2.23-3.64,1.85-23.87-4-47.93-7.12-72.23-9.18C355.4,200.75,353.21,200.49,351,200.27Z"/><path class="cls-6" d="M383.9,422.66c2.55,2.09,5.29,4.06,7.63,6.28,6.81,6.45,25.19,6.77,32.55,3.18a25.17,25.17,0,0,1,3.42-1.1c1.71,17.29-11.9,32-35.2,38-11.91,3.1-24.2,4.15-36.69,4.14-27.34,0-54.27-3-81.85-7,9.71-1.84,18.6-3.71,27.62-5.1,2.52-.39,5.43.66,8.14,1.11,19.37,3.22,37.58,1.2,55-6.27,10-4.31,14.58-10.89,14.9-19.11C379.63,431.72,382.2,427.33,383.9,422.66Z"/><path class="cls-6" d="M152.95,440.69c4.55-.07,8.66,1.48,13,2.19,15.06,2.45,30.17,2,45.33,1.09a360.25,360.25,0,0,0,38.64-4.57c1.08-.18,2.12-.47,3.18-.71,3.42,4.66,7,9.19,12.43,12.75a47.27,47.27,0,0,0,12.71,5.5c-8.45,1.78-16.3,2.65-24.1,3.54a304.22,304.22,0,0,1-45.08,2c-10.9-.38-21.7-1.47-32-4.49C166,454.75,158.25,448.7,152.95,440.69Z"/><path class="cls-4" d="M339.63,343.78c-.06,9-.06,9-11.37,9.32a104.73,104.73,0,0,0-22.53,3.3c-2.13.54-3,.44-3.48-1.58-1.68-7.23-5.45-13.93-10.19-20.25-2.34-3.11-1.88-5.82.13-8.75,7.44-10.85,28.47-12,39.11-2.1C337.56,329.55,339.7,336.39,339.63,343.78Zm-6.13-6.25c.41-8.58-8.28-18.08-20.34-17.28-3.86.26-6.91,1.23-8.84,3.48-2.23,2.58-1.16,5.68,1,7.83a42.58,42.58,0,0,0,18.86,11.21C331.27,344.75,333.49,343.41,333.49,337.53Z"/><path class="cls-7" d="M241.61,377c2-6.19,3.83-11.86,5.64-17.54.31-1,1.3-1.33,2.31-1.71,9.62-3.65,19.23-7.26,27.66-12.54,2.66-1.67,6.77-.35,10.16-.18,2,.1,2,2.11,2.62,3.35a34,34,0,0,1,3.38,9.89c.21,1.27-.24,1.95-1.71,2.53-5.82,2.34-11.55,4.77-16.06,8.58a5.94,5.94,0,0,1-2.59.9C262.68,372.08,252.54,374.42,241.61,377Zm19-12.53a4.56,4.56,0,0,0-4.69-4.85,5.36,5.36,0,0,0-5.56,5.1c0,2.35,1,4.28,4.51,4.58A5.08,5.08,0,0,0,260.57,364.49Z"/><path class="cls-8" d="M304.12,212.51c-8.57-1.34-17.14-1.11-25.78-.36-4,.35-8.1,0-12.15.13-14.59.38-29.09,1.47-43.55,3-4.13.44-8.22,1-12.34,1.45a3.33,3.33,0,0,0-2.71,1.25c-2-.36-4-.87-6-1.05-5.14-.46-10.4-1-13.08,3.72l-9.38,1.28c-.1-4.83-.1-4.83,5.76-5.92a584.44,584.44,0,0,1,81.5-9,802.9,802.9,0,0,1,86.24,1.4c6,.39,5.45,3.55,6.46,6.32-4.35-.08-8.65-1.14-13-.41-3.07-4.32-8.26-5.14-14.07-5.25A111.9,111.9,0,0,0,304.12,212.51Z"/><path class="cls-8" d="M342.7,407.77a165.65,165.65,0,0,0-.8-23.11c10.46-1.09,20.87-.14,31.28.52a3.05,3.05,0,0,1,3.09,2.13c2.34,5.68,2.08,11.36.23,17.08-.38,1.16-1.07,1.52-2.53,1.63C363.56,406.85,353.14,407.47,342.7,407.77Z"/><path class="cls-9" d="M330.51,481.07c-37.94,4.14-74.85,3.56-109.74-10.1,12.12-.56,24-1.76,36.27.57a562.66,562.66,0,0,0,69.75,8.52C328,480.13,329.32,480,330.51,481.07Z"/><path class="cls-8" d="M341.88,434.29c-.27-6.87,1.49-13.7.82-20.58,9.88-.63,19.78-1.21,29.65-1.91,2.38-.17,3.33.26,3.05,2.19-.68,4.81-1.72,9.55-4.26,14a4.31,4.31,0,0,1-3,2.44C359.53,432.41,350.92,434.2,341.88,434.29Z"/><path class="cls-8" d="M197.26,306.3c2.35-.5,3.94.91,5.79,1.49a247.35,247.35,0,0,0,52,10.14c10.44,1,20.82,1.15,31.26,1.11-1.27,1.77-3.07,3.45-3.69,5.34-1,3-3.16,3.36-6.66,3.11-24-1.69-47.07-5.56-68.1-15A42.27,42.27,0,0,1,197.26,306.3Z"/><path class="cls-8" d="M341,378.74c-.13-6.16-1.76-12.19-2.52-18.3a86.51,86.51,0,0,1,29.12,6.36c3.49,1.41,7.75,9.18,6.73,11.9-.34.91-1.22.77-2,.7A236.88,236.88,0,0,0,341,378.74Z"/><path class="cls-8" d="M333.38,314.8c5.72-2.57,12.19-3.78,18.24-5.77,13.2-4.36,24.48-10.87,35.4-17.82a18,18,0,0,1,4.41-2.38c1.86,1.47,1.6,2.82.12,4.49-6.48,7.37-15.35,12.66-25.07,17.22a186,186,0,0,1-22.14,8.33c-3.17,1-5.44,1-7.48-1.32A26,26,0,0,0,333.38,314.8Z"/><path class="cls-8" d="M279.55,449.92c-6.42-1.64-10.85-4.55-14-8.4-13-16-13.26-32.63-3.11-49.56.15-.25.55-.41,1.6-1.18C259,412.28,264.43,431.58,279.55,449.92Z"/><path class="cls-8" d="M337.79,455.64c.86-5,2.84-10,2.39-15.12,9.26-.92,18.53-1.82,27.44-4.11,1.73-.44,2.32,0,2.13,1.37-.54,3.72-1.75,7.41-5.88,9.61A70.57,70.57,0,0,1,337.79,455.64Z"/><path class="cls-4" d="M173,282.88c-7.89-3.26-14.35-13.91-12.3-20.11a6.05,6.05,0,0,1,2.86-3.46c2.82-1.61,4.24-1.24,5,1.41A153.48,153.48,0,0,1,173,282.88Z"/><path class="cls-10" d="M261,334.38c6.65.42,13.3.78,19.93,1.31,2.67.21,2.42,2.17,3.66,3.75C275.8,339.05,268.08,337.76,261,334.38Z"/><polygon class="cls-8" points="264.05 390.2 264.29 390.1 264.26 390.33 264.05 390.2"/><path class="cls-2" d="M304.12,212.51a111.9,111.9,0,0,1,27.8-3.47c5.81.1,11,.93,14.07,5.25,2,3.07,4,6.1,5.84,9.21,1.31,2.2.66,2.93-2.85,2.55-19.92-2.17-39.52-1.36-58.53,4.19a121.92,121.92,0,0,0-16.6,6.07c-1.91.87-3.72,1.38-5.88.49-3.36-1.38-3.84-3.14-1.2-5.28Q282.57,218.7,304.12,212.51Z"/><path class="cls-2" d="M188.46,220.65c2.68-4.7,7.94-4.18,13.08-3.72,2,.18,4,.69,6,1.05a57.24,57.24,0,0,1,27.56,17.09c1.7,1.86,2.31,3.52-.69,4.79-2.19.93-.85,2-.5,3a23.84,23.84,0,0,1-.39,18,12.74,12.74,0,0,1-3.16,4.5c-3.56,3.24-8.36,3.27-11.65-.18-4.8-5-5.67-10.89-4.95-16.85.6-4.95,2.12-9.76,8.07-13.26a54.15,54.15,0,0,0-28.29-5.24,52,52,0,0,0-6.6.83c-3.23.65-3.41-.53-2.54-2.31C185.69,225.79,187.11,223.23,188.46,220.65Zm43.4,26.27c0-3.56-2-6.32-4.62-6.42-2.89-.11-5,2.63-4.75,6.52.15,2.6.43,5.39,4.52,6.14C229.47,253.61,231.83,250.37,231.86,246.93Z"/><path class="cls-2" d="M291.09,246c.22-5,1.57-9.77,5.64-13.84A13.75,13.75,0,0,1,316.5,232c7.6,7.34,7.78,21.21.37,28.65a13.81,13.81,0,0,1-20.31-.12A20.33,20.33,0,0,1,291.09,246Zm10.4-4.45c0,4,2.81,7.13,6.42,7.26s7-3.28,7-7.24-3.32-7.39-7-7.26S301.49,237.54,301.49,241.51Z"/><path class="cls-11" d="M355.87,252.78c9.85,0,18.11,5.91,17.78,13.19s-7.51,13.35-17.78,13.24c-9.58-.11-17.4-6.13-17.34-13.57C338.59,258.76,346.65,252.78,355.87,252.78Z"/><path class="cls-12" d="M328.52,285.6c1.31,4.12-3.15,5.64-7.4,7.13-13.38,4.7-27.61,7.4-41.77,10.21-5.94,1.18-11.92,2.23-17.92,3.21-1.59.26-3.89,1-4.44-1.14s1.78-2.17,3.46-2.48c7.58-1.43,15.14-2.91,22.78-4.11,4.56-.72,7.48-2.69,9.36-5.77,1.66-2.71,3-5.55,4.83-8.18,4-5.65,10-9.16,18.71-9.23C324.34,275.19,328.85,278.79,328.52,285.6Zm-12.73-7a21.13,21.13,0,0,0-8.72,2.47c-5.41,3.27-7.68,8-10.06,12.69-.89,1.74.69,1.5,2,1.15,6.81-1.84,13.8-3.27,20.37-5.68,3.31-1.22,5.35-2.69,4.71-5.6S319.93,278.72,315.79,278.65Z"/><path class="cls-11" d="M216.79,280.87c-.06,5.76-6.85,10.68-14.49,10.5-7.16-.16-13.33-5.2-13.19-10.77.15-6,6.17-10.46,14-10.41S216.86,275,216.79,280.87Z"/><path class="cls-10" d="M262.07,269.21c.05,2.87-2.5,4.4-6.75,3.87a49.42,49.42,0,0,1-10.05-2c-5.11-1.76-6-4.74-2.68-8.17,2.85-2.94,5.84-5.66,10.5-7.05,2.58-.77,4-.33,5.42,1.53C261.23,261,261,265,262.07,269.21Z"/><path class="cls-12" d="M410.49,276.94c1.68-6.24,6.2-11.61,12.6-16.12a2.83,2.83,0,0,1,3.39.12c1.07.85.81,1.84-.18,2.57-5.67,4.15-9.62,9-11.42,14.93-.32,1.07-1.48,1.58-2.9,1.2S410.22,278.38,410.49,276.94Z"/><path class="cls-12" d="M258.31,281.08A86.2,86.2,0,0,1,237.67,276c-1.38-.54-2.88-1.3-2-2.72s2.52-1.29,4.23-.62a78.87,78.87,0,0,0,19.79,4.81c1.69.2,3.5.67,3.08,2.39C262.37,281.37,260.63,281.25,258.31,281.08Z"/><path class="cls-10" d="M423.44,251.53c1,0,2,0,2.27,1a1.59,1.59,0,0,1-1.46,2c-6.94,1.09-11.31,4.71-15.24,8.83a2.57,2.57,0,0,1-2.89.78c-1.07-.39-1.14-1-.81-1.86C406.82,258.33,418.21,251.5,423.44,251.53Z"/><path class="cls-8" d="M288.2,307.72c9.84-1.73,19.19-4.51,28.64-7C309.31,307.7,299.08,308.53,288.2,307.72Z"/><path class="cls-10" d="M405.69,269.38c0,1.21,0,2.55-2.15,2.61-1.57,0-2.23-.94-2-2s.16-2.66,2-2.85S405.67,268.24,405.69,269.38Z"/><path class="cls-10" d="M284.78,381.28c0-4.52,7.56-9.76,12.72-9.42,3.46.23,5.53,2.54,4.7,5.3-.93,3.1-3.42,5.53-5.86,8a7.4,7.4,0,0,1-6.93,2c-2.85-.51-3.75-2.36-4.38-4.26A6.67,6.67,0,0,1,284.78,381.28Z"/><path class="cls-10" d="M333.49,337.53c0,5.89-2.23,7.22-9.33,5.24a42.58,42.58,0,0,1-18.86-11.21c-2.15-2.15-3.22-5.25-1-7.83,1.94-2.25,5-3.22,8.84-3.48C325.21,319.44,333.9,328.95,333.49,337.53Z"/><path class="cls-2" d="M260.57,364.49a5.08,5.08,0,0,1-5.74,4.84c-3.48-.31-4.5-2.23-4.51-4.58a5.36,5.36,0,0,1,5.56-5.1A4.56,4.56,0,0,1,260.57,364.49Z"/><path class="cls-7" d="M231.86,246.93c0,3.45-2.4,6.69-4.85,6.24-4.09-.75-4.38-3.54-4.52-6.14-.22-3.89,1.86-6.63,4.75-6.52C229.91,240.61,231.89,243.37,231.86,246.93Z"/><path class="cls-7" d="M301.49,241.51c0-4,2.78-7.11,6.44-7.24s7,3.33,7,7.26-3.29,7.38-7,7.24S301.49,245.47,301.49,241.51Z"/><path class="cls-13" d="M315.79,278.65c4.13.08,7.65,2.19,8.27,5s-1.4,4.38-4.71,5.6c-6.57,2.41-13.56,3.84-20.37,5.68-1.28.35-2.86.59-2-1.15,2.38-4.67,4.65-9.42,10.06-12.69A21.13,21.13,0,0,1,315.79,278.65Z"/><path class="cls-1" d="M111.3,466.79s261,116.13,439.48-79.16C550.78,387.63,435.28,588.25,111.3,466.79Z"/><path class="cls-1" d="M520.44,157.84s214.35,162.74-51.65,325.49C468.79,483.33,753.79,350.53,520.44,157.84Z"/></g></svg>