<svg xmlns="http://www.w3.org/2000/svg" viewBox="0 0 30 29.977">
  <defs>
    <style>
      .cls-1 {
        fill: #2d2d2d;
      }
    </style>
  </defs>
  <path id="Path_5" data-name="Path 5" class="cls-1" d="M30,15.089a14.911,14.911,0,0,0-4.4-10.6c-.023-.034-.057-.057-.08-.091A14.882,14.882,0,0,0,16.178.134h-.034c-.1-.011-.206-.011-.32-.023h-.069c-.1,0-.194-.011-.3-.011h-.915c-.1,0-.194.011-.3.011h-.069c-.1.011-.206.011-.32.023h-.034A14.882,14.882,0,0,0,4.482,4.4a.308.308,0,0,0-.08.091,14.96,14.96,0,0,0,0,21.2c.023.034.057.057.08.091a14.882,14.882,0,0,0,9.341,4.264h.034c.1.011.206.011.32.023h.069c.1,0,.194.011.3.011h.915c.1,0,.194-.011.3-.011h.069c.1-.011.206-.011.32-.023h.034a14.882,14.882,0,0,0,9.341-4.264.308.308,0,0,0,.08-.091A14.911,14.911,0,0,0,30,15.089Zm-5.351,8.266a14.817,14.817,0,0,0-4.287-2.527,39.736,39.736,0,0,0,.389-4.6h6.917A12.767,12.767,0,0,1,24.649,23.355ZM2.344,16.232H9.261a39.735,39.735,0,0,0,.389,4.6,14.924,14.924,0,0,0-4.287,2.527A12.532,12.532,0,0,1,2.344,16.232ZM5.351,6.823A14.817,14.817,0,0,0,9.638,9.349a39.736,39.736,0,0,0-.389,4.6H2.344A12.563,12.563,0,0,1,5.351,6.823Zm22.306,7.123H20.739a39.736,39.736,0,0,0-.389-4.6,14.924,14.924,0,0,0,4.287-2.527A12.576,12.576,0,0,1,27.656,13.945Zm-16.12,0A35.936,35.936,0,0,1,11.845,10,15.238,15.238,0,0,0,15,10.332,15.238,15.238,0,0,0,18.155,10a35.937,35.937,0,0,1,.309,3.944Zm6.928,2.287a35.937,35.937,0,0,1-.309,3.944,15.182,15.182,0,0,0-6.311,0,35.936,35.936,0,0,1-.309-3.944Zm1.463-9.181a17.291,17.291,0,0,0-1.452-4.2,12.827,12.827,0,0,1,4.516,2.355A12.133,12.133,0,0,1,19.928,7.051Zm-2.172.7a12.957,12.957,0,0,1-2.755.3,12.957,12.957,0,0,1-2.755-.3c.777-3.51,2-5.373,2.755-5.373S16.978,4.239,17.755,7.749ZM11.513,2.855a17.291,17.291,0,0,0-1.452,4.2A12.337,12.337,0,0,1,7,5.211,12.827,12.827,0,0,1,11.513,2.855ZM10.061,23.114a17.291,17.291,0,0,0,1.452,4.2A12.827,12.827,0,0,1,7,24.955,13.068,13.068,0,0,1,10.061,23.114Zm2.184-.686a12.919,12.919,0,0,1,5.511,0c-.777,3.51-2,5.373-2.755,5.373S13.022,25.938,12.245,22.429Zm6.231,4.882a17.291,17.291,0,0,0,1.452-4.2,12.337,12.337,0,0,1,3.064,1.841A12.372,12.372,0,0,1,18.476,27.31Z" transform="translate(0 -0.1)"/>
</svg>
