<svg xmlns="http://www.w3.org/2000/svg" viewBox="0 0 33.012 33">
  <defs>
    <style>
      .cls-1 {
        fill: #4f9d4e;
      }
    </style>
  </defs>
  <g id="XMLID_1_" transform="translate(0.015)">
    <path id="XMLID_3_" class="cls-1" d="M96.566,89.95c-.064-.032-2.476-1.211-2.894-1.372a1.629,1.629,0,0,0-.557-.129.961.961,0,0,0-.815.482c-.236.354-.965,1.211-1.19,1.458-.032.032-.064.075-.1.075s-.4-.15-.5-.2A12.642,12.642,0,0,1,85.7,85.984a.206.206,0,0,1-.043-.1,1.4,1.4,0,0,1,.139-.171c.129-.129.268-.3.407-.461.064-.075.129-.161.193-.236a2.239,2.239,0,0,0,.386-.622l.054-.107A1.162,1.162,0,0,0,86.8,83.23c-.054-.118-1.072-2.562-1.179-2.819-.257-.622-.6-.911-1.083-.911-.043,0,0,0-.182.011a5.827,5.827,0,0,0-2,.514A4.178,4.178,0,0,0,80.8,83.583a7.783,7.783,0,0,0,1.661,4.234.726.726,0,0,0,.064.1,15.8,15.8,0,0,0,6.72,5.841,10.876,10.876,0,0,0,4.062,1.04h0a5.6,5.6,0,0,0,.664-.043l.118-.011a4.283,4.283,0,0,0,2.98-2.111,3.367,3.367,0,0,0,.193-2.2A1.543,1.543,0,0,0,96.566,89.95Z" transform="translate(-72.154 -70.979)"/>
    <path id="XMLID_2_" class="cls-1" d="M16.781,0A16.074,16.074,0,0,0,2.794,24.222L.008,32.432a.442.442,0,0,0,.1.439A.429.429,0,0,0,.415,33a.538.538,0,0,0,.129-.021l8.563-2.722A16.235,16.235,0,0,0,33,16.087,16.177,16.177,0,0,0,16.781,0Zm0,28.831a12.812,12.812,0,0,1-7.063-2.111.471.471,0,0,0-.236-.075.538.538,0,0,0-.129.021L5.067,28.027l1.383-4.083a.416.416,0,0,0-.064-.386,12.588,12.588,0,0,1-2.444-7.47,12.84,12.84,0,1,1,12.84,12.743Z" transform="translate(0)"/>
  </g>
</svg>
